<svg width="94" height="94" viewBox="0 0 94 94" fill="none" xmlns="http://www.w3.org/2000/svg">
<ellipse cx="1.70261" cy="1.70161" rx="1.70261" ry="1.70161" fill="#C4C4C4"/>
<ellipse cx="9.93845" cy="1.70161" rx="1.70261" ry="1.70161" fill="#C4C4C4"/>
<ellipse cx="18.1743" cy="1.70161" rx="1.70261" ry="1.70161" fill="#C4C4C4"/>
<ellipse cx="26.4101" cy="1.70161" rx="1.70261" ry="1.70161" fill="#C4C4C4"/>
<ellipse cx="34.646" cy="1.70161" rx="1.70261" ry="1.70161" fill="#C4C4C4"/>
<ellipse cx="42.8823" cy="1.70161" rx="1.70261" ry="1.70161" fill="#C4C4C4"/>
<ellipse cx="51.1181" cy="1.70161" rx="1.70261" ry="1.70161" fill="#C4C4C4"/>
<ellipse cx="59.354" cy="1.70161" rx="1.70261" ry="1.70161" fill="#C4C4C4"/>
<ellipse cx="67.5898" cy="1.70161" rx="1.70261" ry="1.70161" fill="#C4C4C4"/>
<ellipse cx="75.8257" cy="1.70161" rx="1.70261" ry="1.70161" fill="#C4C4C4"/>
<ellipse cx="84.0615" cy="1.70161" rx="1.70261" ry="1.70161" fill="#C4C4C4"/>
<ellipse cx="92.2973" cy="1.70161" rx="1.70261" ry="1.70161" fill="#C4C4C4"/>
<ellipse cx="9.93845" cy="9.93769" rx="1.70261" ry="1.70161" fill="#C4C4C4"/>
<ellipse cx="18.1743" cy="9.93769" rx="1.70261" ry="1.70161" fill="#C4C4C4"/>
<ellipse cx="26.4101" cy="9.93769" rx="1.70261" ry="1.70161" fill="#C4C4C4"/>
<ellipse cx="34.646" cy="9.93769" rx="1.70261" ry="1.70161" fill="#C4C4C4"/>
<ellipse cx="42.8823" cy="9.93769" rx="1.70261" ry="1.70161" fill="#C4C4C4"/>
<ellipse cx="51.1181" cy="9.93769" rx="1.70261" ry="1.70161" fill="#C4C4C4"/>
<ellipse cx="59.354" cy="9.93769" rx="1.70261" ry="1.70161" fill="#C4C4C4"/>
<ellipse cx="67.5898" cy="9.93769" rx="1.70261" ry="1.70161" fill="#C4C4C4"/>
<ellipse cx="75.8257" cy="9.93769" rx="1.70261" ry="1.70161" fill="#C4C4C4"/>
<ellipse cx="84.0615" cy="9.93769" rx="1.70261" ry="1.70161" fill="#C4C4C4"/>
<ellipse cx="92.2973" cy="9.93769" rx="1.70261" ry="1.70161" fill="#C4C4C4"/>
<ellipse cx="18.1743" cy="18.1737" rx="1.70261" ry="1.70161" fill="#C4C4C4"/>
<ellipse cx="26.4101" cy="18.1737" rx="1.70261" ry="1.70161" fill="#C4C4C4"/>
<ellipse cx="34.646" cy="18.1737" rx="1.70261" ry="1.70161" fill="#C4C4C4"/>
<ellipse cx="42.8823" cy="18.1737" rx="1.70261" ry="1.70161" fill="#C4C4C4"/>
<ellipse cx="51.1181" cy="18.1737" rx="1.70261" ry="1.70161" fill="#C4C4C4"/>
<ellipse cx="59.354" cy="18.1737" rx="1.70261" ry="1.70161" fill="#C4C4C4"/>
<ellipse cx="67.5898" cy="18.1737" rx="1.70261" ry="1.70161" fill="#C4C4C4"/>
<ellipse cx="75.8257" cy="18.1737" rx="1.70261" ry="1.70161" fill="#C4C4C4"/>
<ellipse cx="84.0615" cy="18.1737" rx="1.70261" ry="1.70161" fill="#C4C4C4"/>
<ellipse cx="92.2973" cy="18.1737" rx="1.70261" ry="1.70161" fill="#C4C4C4"/>
<ellipse cx="26.4101" cy="26.4098" rx="1.70261" ry="1.70161" fill="#C4C4C4"/>
<ellipse cx="34.646" cy="26.4098" rx="1.70261" ry="1.70161" fill="#C4C4C4"/>
<ellipse cx="42.8823" cy="26.4098" rx="1.70261" ry="1.70161" fill="#C4C4C4"/>
<ellipse cx="51.1181" cy="26.4098" rx="1.70261" ry="1.70161" fill="#C4C4C4"/>
<ellipse cx="59.354" cy="26.4098" rx="1.70261" ry="1.70161" fill="#C4C4C4"/>
<ellipse cx="67.5898" cy="26.4098" rx="1.70261" ry="1.70161" fill="#C4C4C4"/>
<ellipse cx="75.8257" cy="26.4098" rx="1.70261" ry="1.70161" fill="#C4C4C4"/>
<ellipse cx="84.0615" cy="26.4098" rx="1.70261" ry="1.70161" fill="#C4C4C4"/>
<ellipse cx="92.2973" cy="26.4098" rx="1.70261" ry="1.70161" fill="#C4C4C4"/>
<ellipse cx="34.646" cy="34.6459" rx="1.70261" ry="1.70161" fill="#C4C4C4"/>
<ellipse cx="42.8823" cy="34.6459" rx="1.70261" ry="1.70161" fill="#C4C4C4"/>
<ellipse cx="51.1181" cy="34.6459" rx="1.70261" ry="1.70161" fill="#C4C4C4"/>
<ellipse cx="59.354" cy="34.6459" rx="1.70261" ry="1.70161" fill="#C4C4C4"/>
<ellipse cx="67.5898" cy="34.6459" rx="1.70261" ry="1.70161" fill="#C4C4C4"/>
<ellipse cx="75.8257" cy="34.6459" rx="1.70261" ry="1.70161" fill="#C4C4C4"/>
<ellipse cx="84.0615" cy="34.6459" rx="1.70261" ry="1.70161" fill="#C4C4C4"/>
<ellipse cx="92.2973" cy="34.6459" rx="1.70261" ry="1.70161" fill="#C4C4C4"/>
<ellipse cx="42.8823" cy="42.882" rx="1.70261" ry="1.70161" fill="#C4C4C4"/>
<ellipse cx="51.1181" cy="42.882" rx="1.70261" ry="1.70161" fill="#C4C4C4"/>
<ellipse cx="59.354" cy="42.882" rx="1.70261" ry="1.70161" fill="#C4C4C4"/>
<ellipse cx="67.5898" cy="42.882" rx="1.70261" ry="1.70161" fill="#C4C4C4"/>
<ellipse cx="75.8257" cy="42.882" rx="1.70261" ry="1.70161" fill="#C4C4C4"/>
<ellipse cx="84.0615" cy="42.882" rx="1.70261" ry="1.70161" fill="#C4C4C4"/>
<ellipse cx="92.2973" cy="42.882" rx="1.70261" ry="1.70161" fill="#C4C4C4"/>
<ellipse cx="51.1181" cy="51.118" rx="1.70261" ry="1.70161" fill="#C4C4C4"/>
<ellipse cx="59.354" cy="51.118" rx="1.70261" ry="1.70161" fill="#C4C4C4"/>
<ellipse cx="67.5898" cy="51.118" rx="1.70261" ry="1.70161" fill="#C4C4C4"/>
<ellipse cx="75.8257" cy="51.118" rx="1.70261" ry="1.70161" fill="#C4C4C4"/>
<ellipse cx="84.0615" cy="51.118" rx="1.70261" ry="1.70161" fill="#C4C4C4"/>
<ellipse cx="92.2973" cy="51.118" rx="1.70261" ry="1.70161" fill="#C4C4C4"/>
<ellipse cx="59.354" cy="59.3541" rx="1.70261" ry="1.7016" fill="#C4C4C4"/>
<ellipse cx="67.5898" cy="59.3541" rx="1.70261" ry="1.7016" fill="#C4C4C4"/>
<ellipse cx="75.8257" cy="59.3541" rx="1.70261" ry="1.7016" fill="#C4C4C4"/>
<ellipse cx="84.0615" cy="59.3541" rx="1.70261" ry="1.7016" fill="#C4C4C4"/>
<ellipse cx="92.2973" cy="59.3541" rx="1.70261" ry="1.7016" fill="#C4C4C4"/>
<ellipse cx="67.5898" cy="67.5902" rx="1.70261" ry="1.70161" fill="#C4C4C4"/>
<ellipse cx="75.8257" cy="67.5902" rx="1.70261" ry="1.70161" fill="#C4C4C4"/>
<ellipse cx="84.0615" cy="67.5902" rx="1.70261" ry="1.70161" fill="#C4C4C4"/>
<ellipse cx="92.2973" cy="67.5902" rx="1.70261" ry="1.70161" fill="#C4C4C4"/>
<ellipse cx="75.8257" cy="75.8262" rx="1.70261" ry="1.70161" fill="#C4C4C4"/>
<ellipse cx="84.0615" cy="75.8262" rx="1.70261" ry="1.70161" fill="#C4C4C4"/>
<ellipse cx="92.2973" cy="75.8262" rx="1.70261" ry="1.70161" fill="#C4C4C4"/>
<ellipse cx="84.0615" cy="84.0623" rx="1.70261" ry="1.70161" fill="#C4C4C4"/>
<ellipse cx="92.2973" cy="84.0623" rx="1.70261" ry="1.70161" fill="#C4C4C4"/>
<ellipse cx="92.2973" cy="92.2984" rx="1.70261" ry="1.70161" fill="#C4C4C4"/>
</svg>
