<svg width="130" height="74" viewBox="0 0 130 74" fill="none" xmlns="http://www.w3.org/2000/svg">
<path d="M20.1214 14.6151V19.4693H13.7014V41H7.63361V19.4693H1.1744V14.6151H20.1214ZM39.5361 14.6151H45.6038V41H39.5361V30.4695H29.8668V41H23.8382V14.6151H29.8668V25.3413H39.5361V14.6151ZM51.0666 41V14.6151H57.0952V41H51.0666ZM62.5644 41V14.6151H69.1802L75.3263 25.537C76.1875 27.0768 76.9313 28.5252 77.5576 29.8823C78.2101 31.2133 78.6277 32.1528 78.8103 32.7009L79.1235 33.5621C78.8625 31.6309 78.732 28.9559 78.732 25.537V14.6151H84.7606V41H78.1448L71.8422 30.0781C71.0071 28.6688 70.2633 27.2856 69.6109 25.9285C68.9845 24.5453 68.5539 23.5275 68.319 22.8751L68.0058 21.8964C68.3973 24.2452 68.593 26.9724 68.593 30.0781V41H62.5644ZM89.8601 41V14.6151H95.8887V41H89.8601ZM103.209 27.8075L112.565 41H105.01L96.1627 27.8858L104.697 14.6151H111.861L103.209 27.8075Z" fill="#100E17"/>
<path d="M76.1533 45.8542V49.1941C75.2092 48.6419 74.1048 48.3658 72.8401 48.3658C72.377 48.3658 72.0207 48.4637 71.7713 48.6597C71.522 48.8378 71.3973 49.0694 71.3973 49.3544C71.3973 49.5147 71.4418 49.6661 71.5309 49.8086C71.6199 49.9511 71.7624 50.0847 71.9584 50.2094C72.1721 50.3341 72.3681 50.4499 72.5462 50.5567C72.7421 50.6458 73.0004 50.7616 73.3211 50.9041C73.6595 51.0466 73.9267 51.1713 74.1226 51.2781C74.942 51.7057 75.6011 52.2044 76.0999 52.7744C76.5986 53.3266 76.848 54.0391 76.848 54.912C76.848 56.2479 76.3671 57.2811 75.4052 58.0114C74.4433 58.7417 73.1697 59.1069 71.5843 59.1069C69.9455 59.1069 68.574 58.8308 67.4696 58.2786V54.8051C68.6986 55.6601 69.999 56.0876 71.3706 56.0876C72.3503 56.0876 72.8401 55.7759 72.8401 55.1524C72.8401 54.9921 72.7956 54.8407 72.7065 54.6982C72.6175 54.5557 72.466 54.4221 72.2523 54.2974C72.0385 54.1727 71.8426 54.0748 71.6645 54.0035C71.4863 53.9144 71.2281 53.7987 70.8896 53.6562C70.5512 53.5137 70.2929 53.3979 70.1148 53.3088C68.3157 52.4538 67.4161 51.1713 67.4161 49.4612C67.4161 48.1431 67.9149 47.1189 68.9124 46.3885C69.9277 45.6582 71.1835 45.293 72.6798 45.293C74.0692 45.293 75.227 45.4801 76.1533 45.8542ZM83.1416 45.4534V47.5642C83.8898 46.0679 85.1634 45.3198 86.9625 45.3198C88.8684 45.3198 90.1331 46.1748 90.7566 47.8848C91.0594 47.0832 91.5671 46.4598 92.2796 46.0145C92.9921 45.5513 93.8293 45.3198 94.7912 45.3198C96.1272 45.3198 97.1781 45.7473 97.9441 46.6023C98.7278 47.4395 99.1197 48.6775 99.1197 50.3163V59H95.2187V50.9575C95.2187 50.1916 95.0673 49.5859 94.7645 49.1406C94.4617 48.6953 94.0252 48.4726 93.4552 48.4726C92.8496 48.4726 92.3063 48.722 91.8254 49.2208C91.3622 49.7017 91.1307 50.5745 91.1307 51.8393V59H87.2297V50.9575C87.2297 50.1916 87.0783 49.5859 86.7754 49.1406C86.4726 48.6953 86.0362 48.4726 85.4662 48.4726C84.8606 48.4726 84.3173 48.722 83.8363 49.2208C83.3732 49.7017 83.1416 50.5745 83.1416 51.8393V59H79.2406V45.4534H83.1416ZM108.909 53.4424H107.653C106.994 53.4424 106.486 53.5849 106.13 53.8699C105.774 54.1549 105.596 54.5201 105.596 54.9654C105.596 55.8739 106.121 56.3281 107.172 56.3281C107.724 56.3281 108.152 56.1589 108.455 55.8204C108.758 55.482 108.909 55.0188 108.909 54.431V53.4424ZM102.577 49.6216V46.1213C103.645 45.5157 105.186 45.2129 107.199 45.2129C109.123 45.2129 110.557 45.6315 111.501 46.4687C112.445 47.2881 112.917 48.5706 112.917 50.3163V59H109.096V57.3434C108.526 58.5012 107.404 59.0802 105.729 59.0802C104.411 59.0802 103.378 58.7061 102.63 57.958C101.9 57.2098 101.534 56.2746 101.534 55.1524C101.534 53.8521 102.006 52.8457 102.951 52.1332C103.912 51.4028 105.329 51.0377 107.199 51.0377H108.909V50.1025C108.909 48.9625 108.152 48.3925 106.638 48.3925C105.177 48.3925 103.823 48.8022 102.577 49.6216ZM116.113 59V40.1095H120.014V59H116.113ZM123.497 59V40.1095H127.398V59H123.497Z" fill="#100E17"/>
</svg>
