<svg width="181" height="79" viewBox="0 0 181 79" fill="none" xmlns="http://www.w3.org/2000/svg">
<path d="M19.9285 19.8813V24.6889H13.57V46.0132H7.56042V24.6889H1.16314V19.8813H19.9285ZM39.157 19.8813H45.1665V46.0132H39.157V35.5837H29.5804V46.0132H23.6096V19.8813H29.5804V30.5046H39.157V19.8813ZM50.5769 46.0132V19.8813H56.5477V46.0132H50.5769ZM61.9645 46.0132V19.8813H68.5169L74.604 30.6985C75.4569 32.2235 76.1936 33.658 76.8139 35.0021C77.4601 36.3203 77.8737 37.2509 78.0546 37.7937L78.3648 38.6466C78.1063 36.7339 77.9771 34.0845 77.9771 30.6985V19.8813H83.9479V46.0132H77.3955L71.1533 35.196C70.3262 33.8002 69.5895 32.4303 68.9434 31.0862C68.323 29.7163 67.8965 28.7082 67.6639 28.062L67.3537 27.0928C67.7414 29.419 67.9353 32.1201 67.9353 35.196V46.0132H61.9645ZM88.9984 46.0132V19.8813H94.9692V46.0132H88.9984ZM102.219 32.9472L111.486 46.0132H104.003L95.2406 33.0248L103.693 19.8813H110.788L102.219 32.9472Z" fill="white"/>
<path d="M75.4231 51.3926V54.7004C74.4881 54.1535 73.3943 53.8801 72.1417 53.8801C71.683 53.8801 71.3302 53.9771 71.0832 54.1712C70.8362 54.3476 70.7127 54.5769 70.7127 54.8592C70.7127 55.018 70.7568 55.1679 70.845 55.3091C70.9332 55.4502 71.0744 55.5825 71.2684 55.706C71.4801 55.8295 71.6742 55.9442 71.8506 56.05C72.0447 56.1383 72.3005 56.2529 72.618 56.3941C72.9532 56.5352 73.2179 56.6587 73.4119 56.7645C74.2235 57.188 74.8762 57.6819 75.3702 58.2465C75.8642 58.7934 76.1112 59.4991 76.1112 60.3635C76.1112 61.6867 75.6348 62.7099 74.6822 63.4332C73.7295 64.1565 72.4681 64.5182 70.898 64.5182C69.2749 64.5182 67.9165 64.2448 66.8227 63.6979V60.2577C68.04 61.1045 69.3278 61.5279 70.6863 61.5279C71.6566 61.5279 72.1417 61.2192 72.1417 60.6017C72.1417 60.4429 72.0976 60.2929 72.0094 60.1518C71.9212 60.0107 71.7712 59.8784 71.5595 59.7549C71.3478 59.6314 71.1538 59.5343 70.9773 59.4638C70.8009 59.3756 70.5451 59.2609 70.2099 59.1198C69.8747 58.9786 69.6189 58.8639 69.4425 58.7757C67.6606 57.9289 66.7697 56.6587 66.7697 54.9651C66.7697 53.6596 67.2637 52.6451 68.2517 51.9218C69.2572 51.1985 70.501 50.8368 71.9829 50.8368C73.359 50.8368 74.5057 51.0221 75.4231 51.3926ZM82.3444 50.9956V53.0862C83.0854 51.6043 84.3468 50.8633 86.1286 50.8633C88.0163 50.8633 89.2689 51.7101 89.8864 53.4037C90.1863 52.6099 90.6891 51.9924 91.3948 51.5513C92.1005 51.0926 92.9296 50.8633 93.8823 50.8633C95.2055 50.8633 96.2463 51.2867 97.0049 52.1335C97.7812 52.9627 98.1693 54.1888 98.1693 55.8119V64.4124H94.3057V56.447C94.3057 55.6884 94.1558 55.0886 93.8558 54.6475C93.5559 54.2065 93.1237 53.9859 92.5592 53.9859C91.9593 53.9859 91.4212 54.2329 90.9449 54.7269C90.4862 55.2032 90.2569 56.0677 90.2569 57.3203V64.4124H86.3933V56.447C86.3933 55.6884 86.2433 55.0886 85.9434 54.6475C85.6435 54.2065 85.2113 53.9859 84.6467 53.9859C84.0469 53.9859 83.5088 54.2329 83.0325 54.7269C82.5738 55.2032 82.3444 56.0677 82.3444 57.3203V64.4124H78.4808V50.9956H82.3444ZM107.865 58.908H106.621C105.968 58.908 105.465 59.0492 105.113 59.3315C104.76 59.6137 104.583 59.9754 104.583 60.4164C104.583 61.3162 105.104 61.7661 106.145 61.7661C106.692 61.7661 107.115 61.5985 107.415 61.2633C107.715 60.9281 107.865 60.4694 107.865 59.8872V58.908ZM101.593 55.1238V51.6572C102.651 51.0574 104.178 50.7574 106.171 50.7574C108.076 50.7574 109.497 51.172 110.432 52.0012C111.367 52.8127 111.834 54.083 111.834 55.8119V64.4124H108.05V62.7716C107.485 63.9184 106.374 64.4917 104.716 64.4917C103.41 64.4917 102.387 64.1213 101.646 63.3803C100.923 62.6393 100.561 61.7131 100.561 60.6017C100.561 59.3138 101.028 58.317 101.963 57.6114C102.916 56.888 104.319 56.5264 106.171 56.5264H107.865V55.6002C107.865 54.4711 107.115 53.9065 105.615 53.9065C104.169 53.9065 102.828 54.3123 101.593 55.1238ZM115 64.4124V45.703H118.863V64.4124H115ZM122.313 64.4124V45.703H126.177V64.4124H122.313Z" fill="white"/>
<path d="M19.9285 19.8813V24.6889H13.57V46.0132H7.56042V24.6889H1.16314V19.8813H19.9285ZM39.157 19.8813H45.1665V46.0132H39.157V35.5837H29.5804V46.0132H23.6096V19.8813H29.5804V30.5046H39.157V19.8813ZM50.5769 46.0132V19.8813H56.5477V46.0132H50.5769ZM61.9645 46.0132V19.8813H68.5169L74.604 30.6985C75.4569 32.2235 76.1936 33.658 76.8139 35.0021C77.4601 36.3203 77.8737 37.2509 78.0546 37.7937L78.3648 38.6466C78.1063 36.7339 77.9771 34.0845 77.9771 30.6985V19.8813H83.9479V46.0132H77.3955L71.1533 35.196C70.3262 33.8002 69.5895 32.4303 68.9434 31.0862C68.323 29.7163 67.8965 28.7082 67.6639 28.062L67.3537 27.0928C67.7414 29.419 67.9353 32.1201 67.9353 35.196V46.0132H61.9645ZM88.9984 46.0132V19.8813H94.9692V46.0132H88.9984ZM102.219 32.9472L111.486 46.0132H104.003L95.2406 33.0248L103.693 19.8813H110.788L102.219 32.9472Z" fill="white"/>
<path d="M75.4231 51.3926V54.7004C74.4881 54.1535 73.3943 53.8801 72.1417 53.8801C71.683 53.8801 71.3302 53.9771 71.0832 54.1712C70.8362 54.3476 70.7127 54.5769 70.7127 54.8592C70.7127 55.018 70.7568 55.1679 70.845 55.3091C70.9332 55.4502 71.0744 55.5825 71.2684 55.706C71.4801 55.8295 71.6742 55.9442 71.8506 56.05C72.0447 56.1383 72.3005 56.2529 72.618 56.3941C72.9532 56.5352 73.2179 56.6587 73.4119 56.7645C74.2235 57.188 74.8762 57.6819 75.3702 58.2465C75.8642 58.7934 76.1112 59.4991 76.1112 60.3635C76.1112 61.6867 75.6348 62.7099 74.6822 63.4332C73.7295 64.1565 72.4681 64.5182 70.898 64.5182C69.2749 64.5182 67.9165 64.2448 66.8227 63.6979V60.2577C68.04 61.1045 69.3278 61.5279 70.6863 61.5279C71.6566 61.5279 72.1417 61.2192 72.1417 60.6017C72.1417 60.4429 72.0976 60.2929 72.0094 60.1518C71.9212 60.0107 71.7712 59.8784 71.5595 59.7549C71.3478 59.6314 71.1538 59.5343 70.9773 59.4638C70.8009 59.3756 70.5451 59.2609 70.2099 59.1198C69.8747 58.9786 69.6189 58.8639 69.4425 58.7757C67.6606 57.9289 66.7697 56.6587 66.7697 54.9651C66.7697 53.6596 67.2637 52.6451 68.2517 51.9218C69.2572 51.1985 70.501 50.8368 71.9829 50.8368C73.359 50.8368 74.5057 51.0221 75.4231 51.3926ZM82.3444 50.9956V53.0862C83.0854 51.6043 84.3468 50.8633 86.1286 50.8633C88.0163 50.8633 89.2689 51.7101 89.8864 53.4037C90.1863 52.6099 90.6891 51.9924 91.3948 51.5513C92.1005 51.0926 92.9296 50.8633 93.8823 50.8633C95.2055 50.8633 96.2463 51.2867 97.0049 52.1335C97.7812 52.9627 98.1693 54.1888 98.1693 55.8119V64.4124H94.3057V56.447C94.3057 55.6884 94.1558 55.0886 93.8558 54.6475C93.5559 54.2065 93.1237 53.9859 92.5592 53.9859C91.9593 53.9859 91.4212 54.2329 90.9449 54.7269C90.4862 55.2032 90.2569 56.0677 90.2569 57.3203V64.4124H86.3933V56.447C86.3933 55.6884 86.2433 55.0886 85.9434 54.6475C85.6435 54.2065 85.2113 53.9859 84.6467 53.9859C84.0469 53.9859 83.5088 54.2329 83.0325 54.7269C82.5738 55.2032 82.3444 56.0677 82.3444 57.3203V64.4124H78.4808V50.9956H82.3444ZM107.865 58.908H106.621C105.968 58.908 105.465 59.0492 105.113 59.3315C104.76 59.6137 104.583 59.9754 104.583 60.4164C104.583 61.3162 105.104 61.7661 106.145 61.7661C106.692 61.7661 107.115 61.5985 107.415 61.2633C107.715 60.9281 107.865 60.4694 107.865 59.8872V58.908ZM101.593 55.1238V51.6572C102.651 51.0574 104.178 50.7574 106.171 50.7574C108.076 50.7574 109.497 51.172 110.432 52.0012C111.367 52.8127 111.834 54.083 111.834 55.8119V64.4124H108.05V62.7716C107.485 63.9184 106.374 64.4917 104.716 64.4917C103.41 64.4917 102.387 64.1213 101.646 63.3803C100.923 62.6393 100.561 61.7131 100.561 60.6017C100.561 59.3138 101.028 58.317 101.963 57.6114C102.916 56.888 104.319 56.5264 106.171 56.5264H107.865V55.6002C107.865 54.4711 107.115 53.9065 105.615 53.9065C104.169 53.9065 102.828 54.3123 101.593 55.1238ZM115 64.4124V45.703H118.863V64.4124H115ZM122.313 64.4124V45.703H126.177V64.4124H122.313Z" fill="white"/>
<path d="M144 62.3918C144 61.2873 144.895 60.3918 146 60.3918H160.145C160.845 60.3918 161.412 60.959 161.412 61.6586V61.6586C161.412 62.1224 161.077 62.5182 160.619 62.5944L145.744 65.0736C144.831 65.2257 144 64.5217 144 63.5961V62.3918Z" fill="white"/>
<path d="M145.446 67.1508C144.612 67.2899 143.987 68.0349 144.114 68.8713V68.8713C144.241 69.7129 145.065 70.1868 145.904 70.0469L160.187 67.6664C160.894 67.5486 161.412 66.937 161.412 66.2204V66.2204C161.412 65.3145 160.598 64.6254 159.705 64.7744L145.446 67.1508Z" fill="white"/>
<path d="M146.449 73.5842C145.853 72.9687 146.271 72.0134 147.115 71.8726L158.963 69.898C160.018 69.7222 160.894 70.6835 160.39 71.6268C158.925 74.3701 156.033 76.2367 152.706 76.2367C150.25 76.2367 148.032 75.2198 146.449 73.5842Z" fill="white"/>
<circle cx="153.047" cy="30.2818" r="4.17024" transform="rotate(-30 153.047 30.2818)" fill="white"/>
<path fill-rule="evenodd" clip-rule="evenodd" d="M139.235 6.1177C137.566 7.08121 136.9 8.93082 136.71 10.7638C136.514 12.6449 136.763 14.9302 137.336 17.42C138.486 22.4213 141.04 28.652 144.687 34.9694C148.334 41.2869 152.454 46.6134 156.21 50.1105C157.829 51.6185 159.438 52.8393 160.961 53.6402C161.067 53.0558 161.243 52.4852 161.487 51.9423C157.109 49.4905 151.227 42.8115 146.197 34.0979C139.025 21.677 136.299 9.82569 140.107 7.62722C143.915 5.42875 152.815 13.7157 159.986 26.1365C164.802 34.4781 167.613 42.5627 167.787 47.6393C168.375 47.6105 168.962 47.6533 169.535 47.7641C169.5 46.2671 169.256 44.593 168.847 42.8145C167.696 37.8132 165.143 31.5825 161.496 25.265C157.848 18.9475 153.729 13.621 149.973 10.1239C148.103 8.38302 146.248 7.02478 144.522 6.25359C142.839 5.50211 140.904 5.15419 139.235 6.1177ZM169.214 50.9041C168.634 50.7508 168.02 50.7221 167.417 50.8298C167.134 51.6477 166.69 52.2529 166.076 52.6072C165.614 52.8737 165.078 52.9861 164.479 52.9558C164.196 53.4827 164.028 54.0654 163.988 54.6615C164.997 54.7843 166.014 54.6556 166.947 54.1167C168.177 53.4067 168.863 52.2154 169.214 50.9041Z" fill="url(#paint0_linear)"/>
<path fill-rule="evenodd" clip-rule="evenodd" d="M160.034 7.12611C158.791 7.89674 157.504 8.91861 156.21 10.1239C152.454 13.621 148.334 18.9475 144.687 25.265C141.04 31.5825 138.486 37.8132 137.336 42.8145C136.763 45.3042 136.514 47.5895 136.71 49.4706C136.9 51.3036 137.566 53.1532 139.235 54.1167C140.904 55.0803 142.839 54.7323 144.522 53.9809C146.248 53.2097 148.103 51.8514 149.973 50.1105C153.729 46.6134 157.848 41.2869 161.495 34.9694C165.143 28.652 167.696 22.4213 168.847 17.42C169.196 15.9027 169.425 14.4613 169.506 13.1411C168.923 13.3281 168.328 13.438 167.733 13.4746C167.293 18.5768 164.533 26.2229 159.986 34.0979C152.815 46.5188 143.914 54.8057 140.107 52.6072C136.299 50.4087 139.025 38.5574 146.196 26.1365C150.858 18.0632 156.249 11.7364 160.498 8.90019C160.265 8.32132 160.112 7.72536 160.034 7.12611ZM169.328 9.81481C169.022 8.31683 168.327 6.91437 166.947 6.1177C165.749 5.42586 164.414 5.41017 163.133 5.73452C163.069 6.31615 163.128 6.91465 163.318 7.49002C164.397 7.16853 165.333 7.19857 166.076 7.62722C166.904 8.10525 167.423 9.03966 167.654 10.3371C168.226 10.2858 168.797 10.115 169.328 9.81481Z" fill="url(#paint1_linear)"/>
<path fill-rule="evenodd" clip-rule="evenodd" d="M180.803 30.1175C180.803 28.1905 179.535 26.6888 178.043 25.6073C176.511 24.4974 174.408 23.5703 171.965 22.8215C167.058 21.3173 160.386 20.4131 153.091 20.4131C145.796 20.4131 139.124 21.3173 134.217 22.8215C132.622 23.3105 131.171 23.8756 129.93 24.518C130.379 24.9073 130.786 25.3568 131.137 25.8629C135.741 23.6351 143.852 22.1561 153.091 22.1561C167.434 22.1561 179.06 25.7206 179.06 30.1175C179.06 34.5144 167.434 38.0789 153.091 38.0789C143.796 38.0789 135.642 36.5818 131.053 34.3312C130.702 34.8158 130.287 35.2617 129.812 35.6552C131.079 36.3232 132.571 36.9089 134.217 37.4135C139.124 38.9177 145.796 39.8219 153.091 39.8219C160.386 39.8219 167.058 38.9177 171.965 37.4135C174.408 36.6647 176.511 35.7376 178.043 34.6277C179.535 33.5462 180.803 32.0445 180.803 30.1175ZM127.181 26.3984C126.142 27.3838 125.379 28.6227 125.379 30.1175C125.379 31.5604 126.09 32.7648 127.074 33.7329C127.126 33.706 127.177 33.6778 127.228 33.6485C127.703 33.374 128.104 33.02 128.423 32.613C127.579 31.8281 127.122 30.9891 127.122 30.1175C127.122 29.2215 127.605 28.36 128.495 27.5563C128.136 27.0695 127.685 26.6802 127.181 26.3984Z" fill="url(#paint2_linear)"/>
<path d="M170.891 4.09754C172.042 6.09214 171.359 8.64262 169.364 9.7942C167.37 10.9458 164.819 10.2624 163.668 8.26778C162.516 6.27319 163.2 3.72271 165.194 2.57113C167.189 1.41955 169.739 2.10295 170.891 4.09754Z" fill="url(#paint3_linear)"/>
<path d="M171.761 52.851C172.913 54.8456 172.23 57.396 170.235 58.5476C168.24 59.6992 165.69 59.0158 164.538 57.0212C163.387 55.0266 164.07 52.4761 166.065 51.3245C168.059 50.173 170.61 50.8564 171.761 52.851Z" fill="url(#paint4_linear)"/>
<path d="M128.754 27.9518C129.906 29.9464 129.222 32.4969 127.228 33.6484C125.233 34.8 122.683 34.1166 121.531 32.122C120.379 30.1274 121.063 27.577 123.057 26.4254C125.052 25.2738 127.602 25.9572 128.754 27.9518Z" fill="url(#paint5_linear)"/>
<defs>
<linearGradient id="paint0_linear" x1="166.076" y1="52.6074" x2="140.107" y2="7.62742" gradientUnits="userSpaceOnUse">
<stop stop-color="#FF6B00"/>
<stop offset="1" stop-color="#00FFA3"/>
</linearGradient>
<linearGradient id="paint1_linear" x1="166.076" y1="7.62717" x2="140.106" y2="52.6072" gradientUnits="userSpaceOnUse">
<stop stop-color="#CC00FF"/>
<stop offset="1" stop-color="#00F0FF"/>
</linearGradient>
<linearGradient id="paint2_linear" x1="127.122" y1="30.1174" x2="179.06" y2="30.1174" gradientUnits="userSpaceOnUse">
<stop stop-color="#D88100"/>
<stop offset="1" stop-color="#DB00FF"/>
</linearGradient>
<linearGradient id="paint3_linear" x1="165.194" y1="2.57113" x2="169.364" y2="9.7942" gradientUnits="userSpaceOnUse">
<stop stop-color="#D88100"/>
<stop offset="1" stop-color="#DB00FF"/>
</linearGradient>
<linearGradient id="paint4_linear" x1="166.065" y1="51.3245" x2="170.235" y2="58.5476" gradientUnits="userSpaceOnUse">
<stop stop-color="#CC00FF"/>
<stop offset="1" stop-color="#00F0FF"/>
</linearGradient>
<linearGradient id="paint5_linear" x1="123.057" y1="26.4254" x2="127.228" y2="33.6484" gradientUnits="userSpaceOnUse">
<stop stop-color="#FF6B00"/>
<stop offset="1" stop-color="#00FFA3"/>
</linearGradient>
</defs>
</svg>
